# xmcd CD database file
#
# Track frame offsets:
#	150
#	17017
#	47105
#	61467
#	68360
#	79917
#	89775
#	100967
#	101922
#	136717
#	149117
#	159155
#	170922
#	189317
#
# Disc length: 2709 seconds
#
# Revision: 2
# Processed by: cddbd v1.5.2PL0 Copyright (c) Steve Scherf et al.
# Submitted via: CDex 1.70beta2
#
DISCID=c40a930e
DTITLE=戦闘メカ ザブングル - 戦闘メカ ザブングル BGM集
DYEAR=1993
DGENRE=
TTITLE0=疾風ザブングル
TTITLE1=ゾラの大地
TTITLE2=バザー目指して
TTITLE3=女の意地
TTITLE4=忍び寄る闇
TTITLE5=青い閃光
TTITLE6=希望を胸に
TTITLE7=ザブングル
TTITLE8=砂漠の中を
TTITLE9=イノセント
TTITLE10=悲しみ深く
TTITLE11=砂塵まきあげて
TTITLE12=新天地
TTITLE13=乾いた大地
EXTD=YEAR: 1993
EXTT0=
EXTT1=
EXTT2=
EXTT3=
EXTT4=
EXTT5=
EXTT6=
EXTT7=
EXTT8=
EXTT9=
EXTT10=
EXTT11=
EXTT12=
EXTT13=
PLAYORDER=
